<svg width="1400" height="520"
viewBox="0 0 1400 520"
xmlns="http://www.w3.org/2000/svg">

<defs>

<linearGradient id="bg" x1="0" y1="0" x2="1" y2="1">
<stop offset="0%" stop-color="#020617"/>
<stop offset="50%" stop-color="#111827"/>
<stop offset="100%" stop-color="#1E1B4B"/>
</linearGradient>


<linearGradient id="core">
<stop offset="0%" stop-color="#06B6D4"/>
<stop offset="100%" stop-color="#8B5CF6"/>
</linearGradient>


<filter id="glow">
<feGaussianBlur stdDeviation="8"/>
</filter>

</defs>



<!-- Background -->

<rect width="1400"
height="520"
rx="35"
fill="url(#bg)"/>



<!-- Title -->

<text x="700"
y="55"
font-size="55"
font-family="Arial"
font-weight="bold"
fill="url(#core)"
text-anchor="middle">

DATA PROFILER

</text>


<text x="700"
y="95"
font-size="22"
font-family="Arial"
fill="#CBD5E1"
text-anchor="middle">

Data Preprocessing • Feature Engineering • Exploratory Analysis

</text>




<!-- CONNECTION LINES -->

<g stroke="#334155"
stroke-width="2">


<!-- Inputs -->

<line x1="220" y1="170" x2="600" y2="250"/>
<line x1="220" y1="250" x2="600" y2="250"/>
<line x1="220" y1="330" x2="600" y2="250"/>


<!-- Outputs -->

<line x1="800" y1="250" x2="1180" y2="170"/>
<line x1="800" y1="250" x2="1180" y2="250"/>
<line x1="800" y1="250" x2="1180" y2="330"/>


</g>




<!-- Animated Data Flow -->

<circle r="8" fill="#22C55E">

<animateMotion
dur="5s"
repeatCount="indefinite"
path="M220 170 L600 250 L800 250 L1180 170"/>

</circle>



<circle r="8" fill="#FACC15">

<animateMotion
dur="6s"
repeatCount="indefinite"
path="M220 250 L600 250 L800 250 L1180 250"/>

</circle>




<!-- LEFT INPUT MODULES -->


<g font-family="Arial"
text-anchor="middle">


<rect x="100" y="130"
width="220"
height="70"
rx="18"
fill="#2563EB"/>

<text x="210"
y="173"
fill="white"
font-size="22">

📄 CSV

</text>



<rect x="100" y="215"
width="220"
height="70"
rx="18"
fill="#059669"/>

<text x="210"
y="258"
fill="white"
font-size="22">

🗂 JSON

</text>



<rect x="100" y="300"
width="220"
height="70"
rx="18"
fill="#7C3AED"/>

<text x="210"
y="343"
fill="white"
font-size="22">

🗄 SQLite

</text>


<rect x="100" y="385"
width="220"
height="70"
rx="18"
fill="#EA580C"/>

<text x="210"
y="428"
fill="white"
font-size="22">

🌐 API

</text>


</g>




<!-- CENTER CORE -->


<circle cx="700"
cy="250"
r="105"
fill="#06B6D4"
opacity=".15"
filter="url(#glow)"/>


<circle cx="700"
cy="250"
r="85"
fill="url(#core)">


<animate attributeName="r"
values="85;92;85"
dur="3s"
repeatCount="indefinite"/>

</circle>



<text x="700"
y="240"
fill="white"
font-size="24"
font-weight="bold"
text-anchor="middle">

DATA

</text>


<text x="700"
y="275"
fill="white"
font-size="24"
font-weight="bold"
text-anchor="middle">

ENGINE

</text>





<!-- RIGHT MODULES -->


<g font-family="Arial"
text-anchor="middle">


<rect x="1080"
y="130"
width="220"
height="70"
rx="18"
fill="#DC2626"/>

<text x="1190"
y="173"
fill="white"
font-size="20">

🧹 Cleaning

</text>



<rect x="1080"
y="215"
width="220"
height="70"
rx="18"
fill="#0891B2"/>

<text x="1190"
y="258"
fill="white"
font-size="18">

📊 EDA Analysis

</text>



<rect x="1080"
y="300"
width="220"
height="70"
rx="18"
fill="#9333EA"/>

<text x="1190"
y="343"
fill="white"
font-size="18">

🧬 Features

</text>



<rect x="1080"
y="385"
width="220"
height="70"
rx="18"
fill="#16A34A"/>

<text x="1190"
y="428"
fill="white"
font-size="18">

📋 YData Report

</text>


</g>





<!-- Bottom Analytics -->

<text x="700"
y="490"
fill="#94A3B8"
font-size="18"
font-family="Arial"
text-anchor="middle">

Univariate  |  Bivariate  |  Multivariate  |  Duplicate Removal  |  Feature Engineering

</text>


</svg>
